<svg width="115" height="81" viewBox="0 0 115 81" fill="none" xmlns="http://www.w3.org/2000/svg">
<path d="M29.7637 0.733398C34.7148 0.733398 38.9805 1.87598 42.5605 4.16113C46.2168 6.44629 49.2256 9.53125 51.5869 13.416C53.9482 17.2246 55.7002 21.4902 56.8428 26.2129C58.0615 30.9355 58.6709 35.7725 58.6709 40.7236C58.6709 45.5986 58.0615 50.4355 56.8428 55.2344C55.7002 59.957 53.9482 64.2607 51.5869 68.1455C49.2256 71.9541 46.2168 75.001 42.5605 77.2861C38.9805 79.5713 34.7148 80.7139 29.7637 80.7139C24.8887 80.7139 20.623 79.5713 16.9668 77.2861C13.3105 75.001 10.3018 71.9541 7.94043 68.1455C5.5791 64.2607 3.78906 59.957 2.57031 55.2344C1.42773 50.4355 0.856445 45.5986 0.856445 40.7236C0.856445 35.7725 1.42773 30.9355 2.57031 26.2129C3.78906 21.4902 5.5791 17.2246 7.94043 13.416C10.3018 9.53125 13.3105 6.44629 16.9668 4.16113C20.623 1.87598 24.8887 0.733398 29.7637 0.733398ZM29.7637 10.7881C26.6406 10.7881 23.8604 11.6641 21.4229 13.416C19.0615 15.0918 17.0811 17.377 15.4814 20.2715C13.8818 23.0898 12.6631 26.2891 11.8252 29.8691C10.9873 33.373 10.5684 36.9912 10.5684 40.7236C10.5684 44.4561 10.9873 48.1123 11.8252 51.6924C12.6631 55.1963 13.8818 58.3955 15.4814 61.29C17.0811 64.1084 19.0615 66.3936 21.4229 68.1455C23.8604 69.8213 26.6406 70.6592 29.7637 70.6592C32.8867 70.6592 35.6289 69.8213 37.9902 68.1455C40.4277 66.3936 42.4463 64.1084 44.0459 61.29C45.6455 58.3955 46.8643 55.1963 47.7021 51.6924C48.54 48.1123 48.959 44.4561 48.959 40.7236C48.959 36.9912 48.54 33.373 47.7021 29.8691C46.8643 26.2891 45.6455 23.0898 44.0459 20.2715C42.4463 17.377 40.4277 15.0918 37.9902 13.416C35.6289 11.6641 32.8867 10.7881 29.7637 10.7881ZM114.657 69.8594V79H73.1816V69.8594H88.3779V20.043C86.0928 22.0234 83.7314 23.3945 81.2939 24.1562C78.8564 24.918 76.4189 25.5273 73.9814 25.9844V16.1582C78.3994 15.0156 82.2461 13.1494 85.5215 10.5596C88.7969 7.96973 91.501 5.26562 93.6338 2.44727H98.6611V69.8594H114.657Z" fill="#8491A0"/>
</svg>
