<svg width="117" height="81" viewBox="0 0 117 81" fill="none" xmlns="http://www.w3.org/2000/svg">
<path d="M29.7637 0.733398C34.7148 0.733398 38.9805 1.87598 42.5605 4.16113C46.2168 6.44629 49.2256 9.53125 51.5869 13.416C53.9482 17.2246 55.7002 21.4902 56.8428 26.2129C58.0615 30.9355 58.6709 35.7725 58.6709 40.7236C58.6709 45.5986 58.0615 50.4355 56.8428 55.2344C55.7002 59.957 53.9482 64.2607 51.5869 68.1455C49.2256 71.9541 46.2168 75.001 42.5605 77.2861C38.9805 79.5713 34.7148 80.7139 29.7637 80.7139C24.8887 80.7139 20.623 79.5713 16.9668 77.2861C13.3105 75.001 10.3018 71.9541 7.94043 68.1455C5.5791 64.2607 3.78906 59.957 2.57031 55.2344C1.42773 50.4355 0.856445 45.5986 0.856445 40.7236C0.856445 35.7725 1.42773 30.9355 2.57031 26.2129C3.78906 21.4902 5.5791 17.2246 7.94043 13.416C10.3018 9.53125 13.3105 6.44629 16.9668 4.16113C20.623 1.87598 24.8887 0.733398 29.7637 0.733398ZM29.7637 10.7881C26.6406 10.7881 23.8604 11.6641 21.4229 13.416C19.0615 15.0918 17.0811 17.377 15.4814 20.2715C13.8818 23.0898 12.6631 26.2891 11.8252 29.8691C10.9873 33.373 10.5684 36.9912 10.5684 40.7236C10.5684 44.4561 10.9873 48.1123 11.8252 51.6924C12.6631 55.1963 13.8818 58.3955 15.4814 61.29C17.0811 64.1084 19.0615 66.3936 21.4229 68.1455C23.8604 69.8213 26.6406 70.6592 29.7637 70.6592C32.8867 70.6592 35.6289 69.8213 37.9902 68.1455C40.4277 66.3936 42.4463 64.1084 44.0459 61.29C45.6455 58.3955 46.8643 55.1963 47.7021 51.6924C48.54 48.1123 48.959 44.4561 48.959 40.7236C48.959 36.9912 48.54 33.373 47.7021 29.8691C46.8643 26.2891 45.6455 23.0898 44.0459 20.2715C42.4463 17.377 40.4277 15.0918 37.9902 13.416C35.6289 11.6641 32.8867 10.7881 29.7637 10.7881ZM90.0918 0.733398C95.1191 0.733398 99.5371 1.64746 103.346 3.47559C107.154 5.30371 110.125 7.93164 112.258 11.3594C114.391 14.7109 115.457 18.71 115.457 23.3564C115.457 28.3076 114.2 33.0303 111.687 37.5244C109.173 41.9424 105.593 46.665 100.946 51.6924C96.376 56.7197 90.9297 62.6611 84.6074 69.5166H116.028V79H68.04V74.8867C75.8096 66.2031 82.5127 58.8525 88.1494 52.835C93.7861 46.7412 98.1279 41.5234 101.175 37.1816C104.222 32.8398 105.745 28.9932 105.745 25.6416C105.745 20.6904 104.107 16.9961 100.832 14.5586C97.6328 12.0449 93.748 10.7881 89.1777 10.7881C85.4453 10.7881 81.9033 11.7402 78.5518 13.6445C75.2764 15.4727 72.5342 17.377 70.3252 19.3574V8.61719C72.3057 6.78906 75.0098 5.03711 78.4375 3.36133C81.8652 1.60937 85.75 0.733398 90.0918 0.733398Z" fill="#8491A0"/>
</svg>
