<svg width="115" height="81" viewBox="0 0 115 81" fill="none" xmlns="http://www.w3.org/2000/svg">
<path d="M29.7637 0.733398C34.7148 0.733398 38.9805 1.87598 42.5605 4.16113C46.2168 6.44629 49.2256 9.53125 51.5869 13.416C53.9482 17.2246 55.7002 21.4902 56.8428 26.2129C58.0615 30.9355 58.6709 35.7725 58.6709 40.7236C58.6709 45.5986 58.0615 50.4355 56.8428 55.2344C55.7002 59.957 53.9482 64.2607 51.5869 68.1455C49.2256 71.9541 46.2168 75.001 42.5605 77.2861C38.9805 79.5713 34.7148 80.7139 29.7637 80.7139C24.8887 80.7139 20.623 79.5713 16.9668 77.2861C13.3105 75.001 10.3018 71.9541 7.94043 68.1455C5.5791 64.2607 3.78906 59.957 2.57031 55.2344C1.42773 50.4355 0.856445 45.5986 0.856445 40.7236C0.856445 35.7725 1.42773 30.9355 2.57031 26.2129C3.78906 21.4902 5.5791 17.2246 7.94043 13.416C10.3018 9.53125 13.3105 6.44629 16.9668 4.16113C20.623 1.87598 24.8887 0.733398 29.7637 0.733398ZM29.7637 10.7881C26.6406 10.7881 23.8604 11.6641 21.4229 13.416C19.0615 15.0918 17.0811 17.377 15.4814 20.2715C13.8818 23.0898 12.6631 26.2891 11.8252 29.8691C10.9873 33.373 10.5684 36.9912 10.5684 40.7236C10.5684 44.4561 10.9873 48.1123 11.8252 51.6924C12.6631 55.1963 13.8818 58.3955 15.4814 61.29C17.0811 64.1084 19.0615 66.3936 21.4229 68.1455C23.8604 69.8213 26.6406 70.6592 29.7637 70.6592C32.8867 70.6592 35.6289 69.8213 37.9902 68.1455C40.4277 66.3936 42.4463 64.1084 44.0459 61.29C45.6455 58.3955 46.8643 55.1963 47.7021 51.6924C48.54 48.1123 48.959 44.4561 48.959 40.7236C48.959 36.9912 48.54 33.373 47.7021 29.8691C46.8643 26.2891 45.6455 23.0898 44.0459 20.2715C42.4463 17.377 40.4277 15.0918 37.9902 13.416C35.6289 11.6641 32.8867 10.7881 29.7637 10.7881ZM88.9492 0.733398C93.9766 0.733398 98.4326 1.68555 102.317 3.58984C106.278 5.49414 109.363 8.12207 111.572 11.4736C113.857 14.749 115 18.5195 115 22.7852C115 26.2129 114.124 29.1074 112.372 31.4688C110.696 33.8301 108.678 35.6963 106.316 37.0674C103.955 38.4385 101.784 39.3906 99.8037 39.9238C101.784 40.457 103.955 41.5234 106.316 43.123C108.678 44.6465 110.696 46.665 112.372 49.1787C114.124 51.6924 115 54.6631 115 58.0908C115 62.3564 113.896 66.2031 111.687 69.6309C109.554 73.0586 106.545 75.7627 102.66 77.7432C98.7754 79.7236 94.3193 80.7139 89.292 80.7139C84.7979 80.7139 80.7607 79.9521 77.1807 78.4287C73.6768 76.9053 70.9346 75.2295 68.9541 73.4014V62.0898C70.7061 63.3086 72.5342 64.6416 74.4385 66.0889C76.3428 67.5361 78.5137 68.793 80.9512 69.8594C83.3887 70.9258 86.2451 71.459 89.5205 71.459C94.0908 71.459 97.8613 70.2402 100.832 67.8027C103.803 65.3652 105.288 61.9375 105.288 57.5195C105.288 55.0059 104.488 52.7588 102.889 50.7783C101.365 48.7979 99.3467 47.2363 96.833 46.0938C94.3955 44.9512 91.7676 44.3799 88.9492 44.3799H82.0938V35.2393H88.9492C93.748 35.2393 97.6709 34.2109 100.718 32.1543C103.765 30.0215 105.288 27.0889 105.288 23.3564C105.288 20.6904 104.526 18.3672 103.003 16.3867C101.479 14.4062 99.4609 12.8447 96.9473 11.7021C94.4336 10.5596 91.6533 9.98828 88.6064 9.98828C84.6455 9.98828 81.2939 10.8643 78.5518 12.6162C75.8857 14.292 73.4482 16.2344 71.2393 18.4434V7.13184C73.2197 5.30371 75.7715 3.78027 78.8945 2.56152C82.0938 1.34277 85.4453 0.733398 88.9492 0.733398Z" fill="#8491A0"/>
</svg>
